<svg version="1.1" id="Layer_1" xmlns="http://www.w3.org/2000/svg" xmlns:xlink="http://www.w3.org/1999/xlink" x="0px" y="0px"
	 width="100%" viewBox="0 0 800 592" enable-background="new 0 0 800 592" xml:space="preserve">
<path fill="#000000" opacity="1.000000" stroke="none" 
	d="
M216.016846,318.099426 
	C221.235443,309.616882 227.501251,304.294250 238.057434,303.730164 
	C256.448303,302.747406 250.935669,300.783173 264.989929,314.547333 
	C271.978790,321.391876 280.550507,326.098022 289.580841,328.024323 
	C295.751312,329.340546 301.551300,332.606567 308.253326,332.241943 
	C312.553925,332.007996 312.835144,335.857056 312.390381,339.199860 
	C311.955475,342.468536 310.548767,345.555634 311.190521,349.028748 
	C311.964966,353.220093 314.216125,355.625793 318.453369,355.948334 
	C324.101379,356.378296 329.007416,358.458038 333.620728,361.732361 
	C342.676758,368.159882 356.792114,367.025055 365.385925,359.000763 
	C377.779663,347.428375 400.727020,347.360809 412.631134,358.232147 
	C417.097229,362.310822 422.745941,361.193054 427.866486,361.743103 
	C436.475739,362.667908 445.024506,360.364319 453.650879,360.042938 
	C456.714111,359.928772 459.219330,358.282379 461.096558,355.590820 
	C463.991394,351.440186 468.105316,350.050262 472.961151,351.551392 
	C480.086456,353.754150 486.784698,351.645081 493.368073,349.463928 
	C504.913666,345.638794 516.237000,343.932953 528.574829,346.693573 
	C537.820923,348.762390 547.714905,348.226868 557.182983,345.700195 
	C563.689758,343.963837 570.177368,343.771515 575.880432,347.838074 
	C581.335938,351.728180 586.465881,356.084229 591.635071,360.360962 
	C593.135559,361.602356 593.261719,363.639496 593.240173,365.471924 
	C593.159180,372.359161 594.592468,379.051910 595.890564,385.739227 
	C597.356567,393.291168 597.303345,400.973907 598.197998,408.522644 
	C599.696106,421.162933 587.018494,432.732147 575.099609,432.963287 
	C568.594971,433.089447 562.405884,435.138123 555.921021,435.537994 
	C551.096985,435.835419 546.707703,438.173889 543.363281,442.070221 
	C540.146973,445.817230 535.929382,448.280945 531.399353,450.016815 
	C519.559143,454.553833 511.631805,462.147888 506.904236,474.477722 
	C504.069946,481.869812 504.354675,489.107880 503.371216,496.373505 
	C502.257568,504.600616 498.361389,509.355957 489.966797,509.878174 
	C484.992920,510.187561 480.019806,509.471161 475.012054,509.994202 
	C468.149597,510.710938 461.490753,512.006836 455.397247,515.340820 
	C448.938232,518.874695 442.303772,521.121887 434.823944,519.298523 
	C432.712738,518.783936 430.950958,519.700745 429.313995,521.017273 
	C418.397644,529.797241 405.608337,530.520630 392.390991,529.727905 
	C381.080933,529.049500 370.743256,526.393555 362.735931,517.598267 
	C356.983978,511.280334 349.255280,512.349792 342.111176,513.432861 
	C328.340454,515.520569 315.225952,512.786804 302.212952,509.108765 
	C295.379547,507.177307 292.243225,500.073029 294.895142,493.427826 
	C296.303406,489.899017 297.833527,486.385406 300.522552,483.487640 
	C303.294983,480.499847 303.486481,477.171173 300.561584,474.125366 
	C296.100586,469.480072 293.809052,463.887085 293.013763,457.613373 
	C292.599396,454.344482 290.923920,452.125732 287.619080,452.147736 
	C276.412079,452.222412 269.877014,444.596924 263.390015,437.308502 
	C259.349701,432.769012 256.830750,427.079468 249.498077,426.396423 
	C245.542099,426.027924 246.953522,422.620209 248.564926,419.505859 
	C243.703079,419.505859 239.381592,419.514923 235.060165,419.503998 
	C226.147995,419.481476 221.649750,414.956512 221.673996,406.081085 
	C221.689758,400.307251 221.676971,394.533325 221.084473,388.734741 
	C219.076599,391.446930 219.617996,394.517700 219.450287,397.442200 
	C219.314102,399.817444 219.462662,402.499817 216.830002,403.379272 
	C214.519974,404.150970 213.358688,401.835815 212.236786,400.265533 
	C210.688751,398.098877 208.338791,396.815979 206.884277,394.423462 
	C202.729233,387.588745 204.049133,380.796661 206.988358,374.342651 
	C210.761063,366.058502 212.790009,357.724854 210.857346,348.704681 
	C208.551682,337.943634 210.280350,327.877319 216.016846,318.099426 
M381.925903,420.261078 
	C380.887054,416.819641 381.107300,412.978210 378.960541,409.886780 
	C377.719940,414.282532 379.277863,417.817871 381.743439,421.647583 
	C380.608490,424.596069 379.625824,427.517151 383.137451,429.690643 
	C385.870758,425.083893 385.864105,425.036621 381.925903,420.261078 
M455.250977,406.640594 
	C456.283905,400.341675 452.723816,395.813080 449.392273,391.187622 
	C448.493408,397.464905 453.071411,401.756226 454.939117,407.647064 
	C455.651764,414.060364 460.738464,418.886292 461.388855,425.332916 
	C461.402649,425.469910 461.950043,425.553040 462.359955,425.701721 
	C462.871399,423.937378 463.927734,422.544556 465.661530,421.279236 
	C461.685944,419.428497 460.162720,416.200134 459.493958,412.284241 
	C459.061798,409.753723 457.851501,407.577637 455.250977,406.640594 
M535.748474,425.145020 
	C541.157532,421.756226 542.479431,416.640900 538.887024,410.948822 
	C540.780579,417.695343 536.969604,420.973175 531.969666,423.733704 
	C529.973145,424.835968 527.988037,425.284149 525.800537,425.284821 
	C517.325806,425.287354 508.847351,425.157074 500.378662,425.386169 
	C498.029480,425.449707 495.748474,423.504395 493.136047,424.982483 
	C494.241821,426.304779 495.366730,426.911346 496.726593,427.019073 
	C508.333435,427.938202 519.949463,427.198059 531.560181,427.112213 
	C532.757446,427.103394 533.947388,426.099243 535.748474,425.145020 
M556.995911,425.253906 
	C559.362183,423.334900 562.082703,422.333862 565.060852,421.693420 
	C569.671326,420.701904 573.729797,418.474884 576.877014,414.925476 
	C578.007751,413.650208 580.569458,412.758698 578.458496,409.052429 
	C571.910645,417.199127 562.515015,420.128326 553.756531,423.885986 
	C554.046692,426.192108 555.349060,425.622162 556.995911,425.253906 
M573.266235,397.407776 
	C573.445251,397.870087 573.534363,398.399231 573.819580,398.782501 
	C574.778931,400.071777 575.785095,402.031677 577.645142,400.324890 
	C579.333008,398.775970 577.322144,397.444763 576.447998,396.654266 
	C574.167908,394.592560 571.462708,393.007904 569.109741,391.017151 
	C567.762939,389.877563 567.426697,387.418182 564.698792,387.758545 
	C564.291138,389.983185 565.687988,390.782257 566.951111,391.888763 
	C568.918640,393.612366 571.821655,394.165771 573.266235,397.407776 
M414.782349,407.696838 
	C414.782349,405.883728 414.782349,404.070618 414.782349,402.257507 
	C414.126831,404.684692 414.162323,407.123199 414.116516,409.560150 
	C414.073517,411.847198 414.910980,414.456726 413.183014,416.289673 
	C409.551666,420.141510 412.973907,421.725555 414.875153,424.522186 
	C416.704071,421.760895 417.388672,419.397217 416.213745,417.285248 
	C414.640350,414.457153 414.768188,411.556824 414.782349,407.696838 
M265.239136,328.055176 
	C266.016937,328.055176 266.794739,328.055176 268.012024,328.055176 
	C261.939087,324.203430 254.990341,325.463837 248.533997,331.832947 
	C253.693359,329.707184 258.777832,327.202698 265.239136,328.055176 
M375.508942,388.442505 
	C375.588531,384.917572 375.588531,384.917572 374.139008,382.444397 
	C374.300781,394.272675 374.647919,395.515381 378.339325,397.525269 
	C380.326813,393.753265 377.907654,391.448578 375.508942,388.442505 
M242.148041,338.917969 
	C244.197098,337.602509 246.498947,336.463593 246.063263,333.358826 
	C240.381775,335.829803 236.480438,340.676056 237.409103,344.382050 
	C239.850998,343.515228 240.757629,341.418304 242.148041,338.917969 
M485.376465,424.259186 
	C486.946472,424.957367 488.434326,425.004303 490.759521,423.463684 
	C485.123993,422.787140 484.100128,417.752777 480.591583,414.896179 
	C479.325226,419.736694 483.308838,421.122437 485.376465,424.259186 
M258.360046,422.916931 
	C260.196289,422.752991 261.818054,422.347595 262.008728,419.443054 
	C258.110504,421.850433 254.464813,418.333038 250.611496,419.859009 
	C252.039749,423.659424 254.851379,423.307648 258.360046,422.916931 
M486.515594,379.451660 
	C486.832489,382.866333 482.260681,384.940125 483.722626,388.900604 
	C487.007172,386.721497 488.142059,383.564331 488.973755,380.261444 
	C489.564819,377.914032 488.331757,378.199341 486.515594,379.451660 
M317.000793,371.241699 
	C312.314850,371.972107 311.937866,376.161316 310.061768,379.194458 
	C313.619293,377.648682 315.095978,373.761353 318.900055,372.578430 
	C319.504730,372.390411 318.439606,371.352936 317.000793,371.241699 
M481.285461,397.238434 
	C483.260162,399.891846 486.263184,399.687439 488.282013,396.284943 
	C483.603180,399.191315 484.481903,394.935486 483.850952,393.031677 
	C481.643921,393.643616 481.283447,394.999481 481.285461,397.238434 
M270.099091,393.852203 
	C271.503082,395.459290 272.907043,397.066376 274.276611,398.634064 
	C276.860352,396.159393 275.517212,394.354462 273.621460,392.758972 
	C272.233704,391.591034 271.229218,391.816193 270.099091,393.852203 
M515.450684,376.145813 
	C513.820862,379.201874 517.037048,378.951324 518.124084,380.204315 
	C518.938721,381.143372 518.777771,383.836517 520.806030,382.280365 
	C522.521851,380.963959 520.768433,379.311218 519.769714,378.090363 
	C518.812317,376.920013 517.481262,376.238281 515.450684,376.145813 
M230.000824,357.433655 
	C228.339478,355.012115 227.726669,357.260345 226.974136,358.188568 
	C225.528427,359.971741 224.236389,361.859283 226.898773,364.733582 
	C227.154068,361.671082 228.646194,359.909119 230.000824,357.433655 
M281.829315,405.188263 
	C281.372772,405.218872 280.916229,405.249481 280.459686,405.280121 
	C282.519379,409.359161 282.291107,413.682800 281.609955,418.082825 
	C283.047150,413.929962 282.844269,409.777283 281.829315,405.188263 
M547.699036,364.839905 
	C543.519104,366.444641 542.728943,368.634491 544.836792,373.543671 
	C543.033325,369.540253 547.157959,368.086456 547.699036,364.839905 
M497.909302,367.368774 
	C492.715515,364.897888 494.023346,369.681976 491.781586,372.564117 
	C495.099731,371.186005 496.329620,369.452393 497.909302,367.368774 
M232.173187,348.185089 
	C231.330627,349.858307 230.220901,351.453705 230.305527,353.560455 
	C233.384109,353.584900 234.182465,351.391602 234.788574,349.467407 
	C235.203659,348.149658 234.065186,347.453705 232.173187,348.185089 
M503.882751,365.639984 
	C503.720612,365.627960 503.550629,365.580353 503.398590,365.613953 
	C503.249634,365.646942 502.998810,365.760529 502.997437,365.842163 
	C502.915100,370.751129 507.387115,367.865051 509.011597,369.876343 
	C508.447357,367.145721 505.682678,367.444489 503.882751,365.639984 
M551.650330,363.240448 
	C551.061768,363.786835 550.290344,364.292999 551.429810,365.419830 
	C553.568054,363.069122 556.876953,364.010864 560.147827,362.738281 
	C556.956909,361.891693 554.575439,362.521484 551.650330,363.240448 
z"/>
<path fill="#000000" opacity="1.000000" stroke="none" 
	d="
M339.822205,174.993546 
	C346.285950,170.510162 351.961487,165.638596 352.024689,157.220886 
	C352.083191,149.418503 356.435455,143.039230 358.597260,135.941788 
	C358.932678,134.840530 360.033478,133.206223 360.949066,133.814911 
	C365.188904,136.633530 369.165649,133.648926 373.435211,133.670013 
	C373.435211,131.035690 373.304688,128.388855 373.461884,125.759193 
	C373.807129,119.983673 377.797180,116.141029 381.548248,112.595139 
	C383.794006,110.472229 386.356384,108.659149 388.438843,106.248703 
	C392.998718,100.970596 397.797791,100.709824 405.381775,105.093369 
	C406.965454,106.008720 408.722900,106.822311 409.956390,108.108475 
	C414.155975,112.487457 418.438568,114.306145 424.890259,112.362785 
	C430.220764,110.757126 435.543396,110.018326 439.205597,105.278717 
	C441.053162,102.887573 443.627594,101.784996 446.661957,101.939079 
	C455.009491,102.362961 463.778442,100.217331 471.216858,106.159576 
	C473.444611,107.939186 475.624084,109.734131 477.310852,112.031517 
	C480.840942,116.839607 484.931122,120.785561 491.014404,122.217186 
	C495.146606,123.189644 496.898773,126.892746 499.084564,129.993942 
	C499.951874,131.224533 499.623566,132.588409 498.655121,133.680328 
	C496.206268,136.441467 493.652466,139.279282 489.815247,139.830292 
	C484.712372,140.563080 482.337616,144.132233 481.090332,148.307220 
	C479.280701,154.364410 478.038727,160.607254 479.681061,167.019226 
	C480.261749,169.286407 480.127319,171.593811 478.900024,174.283875 
	C473.866974,169.659668 476.126923,161.325073 469.558411,157.024292 
	C469.776031,162.340775 473.996277,166.547379 470.755676,171.682663 
	C466.368103,166.928604 464.438202,160.879562 460.125275,156.533386 
	C459.461700,155.864670 459.261139,154.452881 458.202972,154.415405 
	C450.909790,154.157120 445.209534,148.190903 437.876953,148.561096 
	C430.917877,148.912476 424.267487,151.151260 417.699646,153.340820 
	C411.928040,155.264923 407.898315,158.920212 405.752014,165.050110 
	C403.468079,171.573151 399.321503,177.292374 398.049438,184.389709 
	C396.385712,193.672134 401.063721,200.279800 409.653107,204.167923 
	C418.105682,207.994110 427.179047,212.564911 428.677795,223.803192 
	C429.124390,227.151733 428.797638,230.092529 426.031555,232.401016 
	C423.505096,234.509583 422.814606,237.260254 423.100128,240.474747 
	C424.307526,254.067413 416.341949,265.436859 401.795807,266.272644 
	C391.240662,266.879089 384.297607,273.509247 381.728455,283.657898 
	C380.826050,287.222565 378.613464,289.563141 375.084015,290.398315 
	C371.526306,291.240143 367.878754,291.962006 364.208679,291.319824 
	C344.433533,287.859680 324.659210,291.734619 304.882538,291.359558 
	C302.199951,291.308655 299.446899,292.781860 296.802246,293.755341 
	C295.233551,294.332733 293.934784,295.301300 293.804688,297.337616 
	C293.004242,309.866364 289.046204,308.281555 279.818970,307.743103 
	C276.098755,307.526001 272.339691,306.145721 268.815887,304.746826 
	C259.698761,301.127319 258.964508,291.721222 255.374466,284.344879 
	C254.658173,282.873138 255.772827,281.020935 256.934814,279.797546 
	C261.354156,275.144562 262.341675,269.273407 263.051971,263.272369 
	C263.208374,261.950958 263.196259,260.533752 263.693237,259.340363 
	C268.146484,248.646622 264.118683,239.170380 259.439972,229.860428 
	C255.676285,222.371201 253.610413,214.343384 251.716812,206.289169 
	C251.048615,203.447052 251.798706,200.270920 253.045624,197.500366 
	C255.185638,192.745407 255.526810,187.785202 254.551102,182.821075 
	C253.800705,179.003235 255.137970,176.213959 257.882019,174.040649 
	C260.471558,171.989685 263.293976,173.275284 265.951508,174.284821 
	C266.720306,174.576904 267.384247,175.133499 268.132904,175.492416 
	C270.274231,176.518982 272.403839,179.268921 274.817780,177.115768 
	C277.011658,175.158936 275.807068,172.196747 275.377472,169.558243 
	C274.430267,163.740707 275.734436,158.342911 278.489258,152.872101 
	C281.044556,154.793121 279.686737,158.451126 283.437317,159.292923 
	C285.130402,154.376328 284.326385,149.876007 281.421356,145.459686 
	C284.256592,143.618805 285.989594,145.167053 287.510742,146.912186 
	C288.127014,147.619232 288.719421,148.786453 288.592316,149.634872 
	C287.124847,159.430450 294.860107,162.708420 300.841156,167.290314 
	C302.241272,168.362900 303.397949,168.506805 304.918152,167.681931 
	C310.619202,164.588425 315.591644,166.015656 319.697144,170.591736 
	C322.142090,173.316940 323.908386,172.691696 324.633087,169.695786 
	C326.461914,162.135300 331.773529,160.181427 338.536469,160.628357 
	C340.942291,160.787354 342.583984,159.386612 344.833832,158.677521 
	C347.401154,161.730927 347.390656,164.508774 344.341400,167.250504 
	C342.612305,168.805237 340.941071,170.430298 339.324158,172.101486 
	C338.390808,173.066193 337.395142,174.201782 339.822205,174.993546 
M401.540619,138.636627 
	C404.482025,135.339905 407.743683,132.267410 410.260040,128.673126 
	C412.155914,125.965111 416.501709,125.926453 417.542969,122.012566 
	C418.294617,122.303101 419.198853,123.024002 419.775085,122.819717 
	C428.602173,119.690506 437.642090,118.226418 447.281006,119.608093 
	C451.339996,123.301811 455.398956,126.995529 459.457947,130.689255 
	C456.739410,125.165573 453.817139,119.880585 446.619568,118.390778 
	C435.959290,113.142311 426.446014,117.223724 416.463867,121.874992 
	C411.719208,124.179550 407.179443,126.950699 403.568909,130.720581 
	C401.631775,132.743210 399.307739,135.489273 400.354156,139.107529 
	C395.819214,140.336273 397.526917,144.445969 396.726501,147.421936 
	C399.284332,145.199600 401.412994,142.764587 401.540619,138.636627 
M333.911713,212.671127 
	C339.757416,214.596588 345.396454,213.173431 350.786133,211.106201 
	C353.228790,210.169342 355.150024,207.799316 354.119568,204.690842 
	C353.197052,201.908005 350.700989,201.733475 348.335968,202.190170 
	C345.024048,202.829712 341.816254,202.674408 338.507782,202.116821 
	C335.882629,201.674393 332.923523,201.686127 331.633820,204.677139 
	C330.457245,207.405914 330.575958,210.197037 333.911713,212.671127 
M304.457520,184.962631 
	C311.033539,185.371124 316.922211,182.373795 323.178040,181.206223 
	C327.145935,180.465683 331.039459,179.860229 334.698334,177.789871 
	C336.897491,176.545486 337.202850,175.634491 335.571228,172.676727 
	C329.322296,180.199158 319.846375,177.360687 312.293396,180.969757 
	C310.158020,181.990097 308.008087,183.327377 305.312927,183.350571 
	C298.313232,183.410767 293.112457,180.169769 288.738251,175.110703 
	C287.352692,173.508163 286.233704,171.470383 283.393463,171.664825 
	C293.309021,184.382904 293.309021,184.382904 304.457520,184.962631 
M463.351196,134.713470 
	C462.412506,135.017914 461.932648,135.841415 462.150726,136.630035 
	C463.873383,142.859543 464.986969,149.378052 470.382050,155.527542 
	C469.150604,147.354126 465.513214,141.414047 463.351196,134.713470 
M378.842773,120.152596 
	C383.296478,122.582306 379.114105,128.894043 384.230103,132.105408 
	C383.954712,127.642036 383.856384,124.068565 383.459167,120.528633 
	C383.286255,118.987526 382.087860,117.781578 380.494720,117.547028 
	C379.278900,117.368027 378.901276,118.478615 378.842773,120.152596 
M396.677521,153.562439 
	C396.309753,151.258636 395.244232,150.638519 394.112305,152.953918 
	C392.666534,155.911331 390.324066,156.571548 387.286163,156.070374 
	C387.914856,159.705902 389.561249,162.556366 392.679688,159.989334 
	C394.009491,158.894684 396.336426,156.813065 396.677521,153.562439 
M392.076752,180.323242 
	C396.179199,176.761688 393.246674,172.819489 392.671509,168.982178 
	C391.359619,172.576492 387.857513,175.907974 392.076752,180.323242 
z"/>
<path fill="#000000" opacity="1.000000" stroke="none" 
	d="
M161.528748,110.458313 
	C161.273483,105.173134 160.841721,100.346779 160.941971,95.531517 
	C161.076828,89.055374 163.822571,87.379555 170.311264,87.955345 
	C178.086823,88.645348 185.635834,90.633217 193.383224,91.365753 
	C194.607681,91.481522 195.664200,91.213715 196.729446,90.269608 
	C193.084961,87.349030 187.873550,89.878586 184.051102,86.644135 
	C186.960938,83.684776 190.619629,83.859695 193.888489,83.187897 
	C197.596817,82.425774 200.601959,81.215775 201.126404,76.890717 
	C201.450378,74.218948 203.513489,74.063065 205.604370,73.989830 
	C222.036118,73.414345 236.677414,78.595459 249.926834,87.992302 
	C254.862534,91.492821 256.624451,98.068069 254.661652,103.924141 
	C254.555862,104.239815 254.334579,104.564278 254.359100,104.869202 
	C254.957138,112.306458 250.744659,117.165802 245.520508,121.513092 
	C243.722534,123.009262 244.497375,124.859894 245.058975,126.588791 
	C249.055481,138.892105 245.102081,150.048920 240.173340,161.087265 
	C239.220963,163.220169 237.951752,163.645157 235.820984,162.654922 
	C229.383591,159.663254 223.322006,160.635803 217.659973,164.723282 
	C216.229111,165.756226 214.850586,165.267685 213.396057,164.776169 
	C209.992996,163.626190 206.502487,163.618896 203.038803,164.389542 
	C200.327774,164.992752 198.281723,166.338486 197.173325,169.206818 
	C195.499863,173.537430 190.800690,174.599762 187.766357,171.037704 
	C183.857513,166.449066 177.886826,166.627731 173.176361,163.880875 
	C169.727356,161.869659 167.936615,165.620682 168.155502,168.518661 
	C168.625534,174.741760 166.767349,180.369217 164.820343,186.032623 
	C163.724350,189.220596 163.975876,192.236435 165.327988,195.257004 
	C165.899368,196.533478 167.172272,197.825455 165.305084,199.475235 
	C162.294922,198.107574 161.847702,195.133102 161.947693,192.534180 
	C162.343521,182.247330 159.883636,172.073334 161.318207,161.678772 
	C161.812393,158.098083 160.680374,153.686737 158.364304,150.026276 
	C157.734558,152.506195 157.869904,155.239090 154.260406,155.810196 
	C150.399811,146.486160 154.896774,138.113815 156.778015,128.638641 
	C159.706726,132.015701 158.687515,135.590729 160.045959,138.530457 
	C161.312881,129.328369 162.319382,120.176620 161.528748,110.458313 
M185.224411,106.951118 
	C172.731125,101.781242 164.207672,106.999733 164.157806,118.521851 
	C164.122604,126.659889 168.652649,132.935684 172.266418,139.591232 
	C173.062958,141.058197 174.641281,141.779785 176.503693,141.789261 
	C185.537018,141.835205 187.525909,140.506531 190.667267,132.103836 
	C194.681213,121.367088 193.334549,114.496048 185.224411,106.951118 
M219.611832,94.040802 
	C223.252090,97.390327 227.794037,96.328468 232.044464,96.677887 
	C226.592682,95.715500 221.800400,91.319191 215.239349,92.809929 
	C216.654587,94.646866 217.913757,93.637253 219.611832,94.040802 
M238.956924,97.969872 
	C237.580109,98.080513 236.389511,96.350502 234.452332,97.809677 
	C237.942337,100.858627 242.747391,99.218964 246.055954,101.847099 
	C245.580414,97.399178 242.442627,98.042938 238.956924,97.969872 
M202.978470,155.732971 
	C203.879074,155.171524 205.312378,155.347183 205.688629,153.538345 
	C202.790787,153.438889 199.920242,152.494385 197.672119,155.228836 
	C199.212814,157.470230 200.818939,156.196686 202.978470,155.732971 
z"/>
<path fill="#000000" opacity="1.000000" stroke="none" 
	d="
M158.179733,167.531494 
	C157.600098,171.744766 156.926300,175.623825 156.184540,179.489838 
	C156.106750,179.895279 155.627747,180.223724 155.329208,180.594971 
	C149.505615,175.035858 149.385849,166.393860 155.061920,161.786758 
	C157.288284,162.896896 156.795090,165.551178 158.179733,167.531494 
z"/>
<path fill="#000000" opacity="1.000000" stroke="none" 
	d="
M155.790421,83.039665 
	C157.594208,82.637550 158.972992,80.679886 160.562592,82.572304 
	C161.996643,84.279556 160.771393,85.583069 159.768951,86.943245 
	C157.576691,89.917839 158.913162,94.006538 156.870972,97.207718 
	C148.595734,88.074661 148.424637,86.117111 155.790421,83.039665 
z"/>
<path fill="#000000" opacity="1.000000" stroke="none" 
	d="
M220.011108,416.411987 
	C221.571060,417.843079 222.924606,419.038208 224.273071,420.239014 
	C225.163818,421.032166 226.077621,421.943604 225.218155,423.164825 
	C224.416077,424.304474 223.189240,423.929504 222.065277,423.546539 
	C218.081284,422.189209 216.660355,419.025848 218.109573,414.696655 
	C219.174622,414.617157 219.243256,415.681610 220.011108,416.411987 
z"/>
<path fill="#000000" opacity="1.000000" stroke="none" 
	d="
M348.106873,125.186722 
	C352.637817,123.174210 353.042389,126.671234 354.896545,129.708023 
	C351.610352,129.250031 349.212341,129.873093 346.981384,131.445511 
	C345.136292,128.827682 346.678253,127.166634 348.106873,125.186722 
z"/>
</svg>